<svg version="1.1" xmlns="http://www.w3.org/2000/svg" xmlns:xlink="http://www.w3.org/1999/xlink"
	 viewBox="468 108 480 484" xml:space="preserve">
<path fill="none" opacity="1.000000" stroke="currentColor" stroke-linecap="round" stroke-linejoin="round" stroke-width="11.000000"
	d="
M794.000000,411.000000 
	C830.500000,411.000000 867.000000,411.001465 903.500000,410.998718 
	C910.505188,410.998199 910.997803,410.505188 910.998718,403.500000 
	C911.001953,377.833344 911.002014,352.166656 910.998718,326.500000 
	C910.997803,319.494812 910.505188,319.001862 903.500000,319.001282 
	C868.833313,318.998474 834.166687,319.001526 799.500000,318.998718 
	C792.494812,318.998138 792.002197,318.505188 792.001282,311.500000 
	C791.997986,286.333344 791.974243,261.166595 792.020752,236.000046 
	C792.030640,230.666443 790.925110,225.387589 791.918884,219.985077 
	C792.959229,214.329208 792.963928,214.006607 799.000000,214.004349 
	C825.833313,213.994324 852.666687,214.000000 879.500000,214.000000 
	C896.666687,214.000000 913.833313,214.008652 931.000000,213.995468 
	C937.260559,213.990662 937.992859,213.260590 937.995483,207.000000 
	C938.006287,181.166672 938.002136,155.333328 937.998596,129.500000 
	C937.997559,122.074417 936.925598,121.001572 929.500000,121.001320 
	C862.666687,120.999062 795.831726,120.759735 729.001404,121.207336 
	C715.991760,121.294479 703.010864,120.476082 689.996948,120.907303 
	C677.177673,121.332069 664.333313,121.000000 651.500000,121.000000 
	C638.500000,121.000000 625.500000,121.000000 612.500000,121.000000 
	C599.500000,121.000000 586.500000,121.000000 573.500000,121.000000 
	C560.666687,121.000000 547.833313,121.000000 535.000000,121.000000 
	C522.000000,121.000000 508.990417,121.283524 496.005249,120.844749 
	C491.518555,120.693138 487.734558,122.653313 483.522461,123.179649 
	C481.022400,123.492027 480.673431,126.759758 480.060394,129.016403 
	C479.723083,130.258102 480.000000,131.666672 480.000000,133.000000 
	C480.000000,192.166672 479.998260,251.333328 480.006012,310.500000 
	C480.006348,313.038147 479.579163,315.693695 481.054596,317.964539 
	C481.528320,318.693634 481.676453,319.425171 481.458160,319.983643 
	C478.515442,327.511353 480.100372,335.342529 480.086121,343.000153 
	C479.944153,419.333252 480.044342,495.666718 479.929504,571.999878 
	C479.918365,579.405762 481.230469,580.617065 489.500092,580.507690 
	C492.999481,580.461426 496.500305,580.529541 499.999939,580.494873 
	C515.666748,580.339905 531.338257,579.856628 546.998291,580.107605 
	C557.673950,580.278809 568.326355,580.596985 579.002686,580.052124 
	C585.248657,579.733337 585.994690,579.260559 585.995605,573.000000 
	C586.003357,521.666687 586.000000,470.333344 586.000000,419.000000 
	C586.000000,411.247894 586.247864,411.000000 594.000000,411.000000 
	C618.500000,411.000000 643.000183,410.950134 667.499817,411.046478 
	C671.852417,411.063599 676.519287,408.944092 680.500000,412.500000 
	C684.998535,408.763702 690.165527,411.343719 695.004272,411.078430 
	C700.986328,410.750488 707.000061,410.987152 713.000000,411.003571 
	C719.260620,411.020691 719.994751,411.739410 719.995667,418.000000 
	C720.003235,471.333344 720.000000,524.666687 720.000000,578.000000 
"/>
<path fill="none" opacity="1.000000" stroke="currentColor" stroke-linecap="round" stroke-linejoin="round" stroke-width="8.000000"
	d="
M717.500000,363.500000 
	C658.000000,363.500000 598.500000,363.499329 539.000000,363.501068 
	C533.051758,363.501251 532.829224,363.798157 533.479858,370.002106 
	C533.618164,371.320953 533.500000,372.666656 533.500000,374.000000 
	C533.500000,437.166656 533.500000,500.333344 533.500000,563.500000 
"/>
<path fill="none" opacity="1.000000" stroke="currentColor" stroke-linecap="round" stroke-linejoin="round" stroke-width="7.000000"
	d="
M920.500000,166.500015 
	C918.500000,166.666687 916.500061,166.977936 914.500000,166.978928 
	C861.000000,167.005402 807.500000,166.999252 754.000000,167.001083 
	C748.008118,167.001297 748.001282,167.008102 748.001099,173.000000 
	C747.999329,230.000000 747.984741,287.000000 748.021912,344.000000 
	C748.025940,350.166748 748.333374,356.333344 748.500061,362.500000 
"/>
<path fill="none" opacity="1.000000" stroke="currentColor" stroke-linecap="round" stroke-linejoin="round" stroke-width="11.000000"
	d="
M719.500000,123.000000 
	C719.666687,125.000000 719.975830,126.999817 719.978333,129.000031 
	C720.010986,154.833313 720.001953,180.666672 719.998657,206.500000 
	C719.997803,213.505188 719.505188,213.998245 712.500000,213.998703 
	C672.833313,214.001358 633.166687,213.998505 593.500000,214.001358 
	C586.118164,214.001892 585.500000,214.628174 585.500000,222.000000 
	C585.500000,238.000000 585.844727,254.009537 585.402161,269.997284 
	C584.968384,285.668793 585.135559,301.333008 585.000000,317.000000 
"/>
<path fill="none" opacity="1.000000" stroke="currentColor" stroke-linecap="round" stroke-linejoin="round" stroke-width="11.000000"
	d="
M680.500000,413.000000 
	C681.442566,464.497498 680.822266,516.000061 680.999451,567.500000 
	C681.004028,568.833313 681.123108,570.180054 680.979919,571.497803 
	C680.085938,579.725037 681.072083,581.091370 688.993835,580.426819 
	C697.004272,579.754883 705.052795,580.711914 712.987549,579.881348 
	C724.203247,578.707397 735.308044,580.745117 746.507202,580.130981 
	C757.474182,579.529541 768.500000,580.000000 779.500000,580.000000 
	C779.833313,580.000000 780.166870,579.992859 780.500000,580.001099 
	C792.000000,580.284302 792.000000,580.284485 792.000000,568.500000 
	C792.000000,518.666687 791.766602,468.831238 792.217773,419.001984 
	C792.297852,410.154755 791.571228,401.344208 791.923096,392.496948 
	C792.273926,383.677551 792.000000,374.833344 792.000000,366.307037 
	C794.718567,364.066833 797.784790,363.955444 801.000061,363.960907 
	C837.333252,364.022583 873.666687,364.000000 910.000000,364.000000 
"/>
<path fill="none" opacity="1.000000" stroke="currentColor" stroke-linecap="round" stroke-linejoin="round" stroke-width="7.000000"
	d="
M718.500000,167.500000 
	C711.500000,167.666656 704.500122,167.971085 697.500000,167.977676 
	C651.500000,168.020966 605.499939,167.957474 559.500061,168.040222 
	C551.468872,168.054672 543.294434,166.866302 535.500000,170.000000 
"/>
<path fill="none" opacity="1.000000" stroke="currentColor" stroke-linecap="round" stroke-linejoin="round" stroke-width="7.000000"
	d="
M487.000000,125.000000 
	C491.657471,132.214218 498.844269,136.835159 505.027588,142.469727 
	C514.971252,151.530853 525.092834,160.396622 535.316284,169.502594 
	C533.177917,172.779922 532.948914,176.305786 532.954468,180.000076 
	C533.024048,225.999969 533.000000,272.000000 533.000000,318.000000 
"/>
<path fill="none" opacity="1.000000" stroke="currentColor" stroke-linecap="round" stroke-linejoin="round" stroke-width="11.000000"
	d="
M482.000000,319.500000 
	C484.166656,319.333344 486.333191,319.023926 488.500031,319.021545 
	C517.666687,318.989380 546.840637,319.376831 575.996338,318.811005 
	C587.352112,318.590607 598.657654,319.442780 610.002563,319.079498 
	C621.324280,318.716980 632.666687,319.000000 644.000000,319.000000 
	C655.333313,319.000000 666.666687,319.000000 678.000000,319.000000 
"/>
<path fill="none" opacity="1.000000" stroke="currentColor" stroke-linecap="round" stroke-linejoin="round" stroke-width="7.000000"
	d="
M537.500000,170.500000 
	C542.901001,177.345612 550.167603,182.166626 556.525696,187.971848 
	C565.591309,196.249207 574.833374,204.333328 584.000000,212.499985 
"/>
<path fill="none" opacity="1.000000" stroke="currentColor" stroke-linecap="round" stroke-linejoin="round" stroke-width="7.000000"
	d="
M922.000000,150.000000 
	C922.000000,161.333328 922.000000,172.666672 922.000000,184.000000 
"/>
<path fill="none" opacity="1.000000" stroke="currentColor" stroke-linecap="round" stroke-linejoin="round" stroke-width="7.000000"
	d="
M550.000000,565.000000 
	C539.000000,565.000000 528.000000,565.000000 517.000000,565.000000 
"/>
</svg>
