<svg width="727" height="109" viewBox="0 0 727 109" fill="none" xmlns="http://www.w3.org/2000/svg">
<g clip-path="url(#clip0_84_2189)">
<rect width="1440" height="29242" transform="translate(-361 -10056)" fill="white"/>
<circle cx="51" cy="54" r="35.25" fill="#FFE8A3" stroke="#CCBA82" stroke-width="1.5"/>
<path d="M39.936 49.0234C39.936 48.8408 39.9074 48.6797 39.8501 48.54C39.7964 48.3968 39.6997 48.2679 39.5601 48.1533C39.424 48.0387 39.2342 47.9295 38.9907 47.8257C38.7508 47.7218 38.4465 47.6162 38.0776 47.5088C37.6909 47.3942 37.3418 47.2671 37.0303 47.1274C36.7188 46.9842 36.452 46.8213 36.23 46.6387C36.008 46.4561 35.8379 46.2466 35.7197 46.0103C35.6016 45.7739 35.5425 45.5036 35.5425 45.1992C35.5425 44.8949 35.6051 44.6138 35.7305 44.356C35.8558 44.0981 36.0348 43.8743 36.2676 43.6846C36.5039 43.4912 36.785 43.3408 37.1108 43.2334C37.4367 43.126 37.8001 43.0723 38.2012 43.0723C38.7884 43.0723 39.2861 43.1851 39.6943 43.4106C40.1061 43.6326 40.4194 43.9245 40.6343 44.2861C40.8491 44.6442 40.9565 45.0273 40.9565 45.4355H39.9253C39.9253 45.1419 39.8626 44.8823 39.7373 44.6567C39.612 44.4276 39.4222 44.2485 39.168 44.1196C38.9137 43.9871 38.5915 43.9209 38.2012 43.9209C37.8324 43.9209 37.528 43.9764 37.2881 44.0874C37.0482 44.1984 36.8691 44.3488 36.751 44.5386C36.6364 44.7284 36.5791 44.945 36.5791 45.1885C36.5791 45.3532 36.6131 45.5036 36.6812 45.6396C36.7528 45.7721 36.862 45.8957 37.0088 46.0103C37.1592 46.1248 37.349 46.2305 37.5781 46.3271C37.8109 46.4238 38.0884 46.5169 38.4106 46.6064C38.8547 46.7318 39.2378 46.8714 39.5601 47.0254C39.8823 47.1794 40.1473 47.353 40.355 47.5464C40.5662 47.7362 40.722 47.9528 40.8223 48.1963C40.9261 48.4362 40.978 48.7083 40.978 49.0127C40.978 49.3314 40.9136 49.6196 40.7847 49.8774C40.6558 50.1353 40.4714 50.3555 40.2314 50.5381C39.9915 50.7207 39.7033 50.8621 39.3667 50.9624C39.0337 51.0591 38.6613 51.1074 38.2495 51.1074C37.8879 51.1074 37.5316 51.0573 37.1807 50.957C36.8333 50.8568 36.5164 50.7064 36.23 50.5059C35.9471 50.3053 35.7197 50.0583 35.5479 49.7646C35.3796 49.4674 35.2954 49.1237 35.2954 48.7334H36.3267C36.3267 49.002 36.3786 49.2329 36.4824 49.4263C36.5863 49.616 36.7277 49.7736 36.9067 49.8989C37.0894 50.0243 37.2952 50.1174 37.5244 50.1782C37.7572 50.2355 37.9989 50.2642 38.2495 50.2642C38.6112 50.2642 38.9173 50.214 39.168 50.1138C39.4186 50.0135 39.6084 49.8703 39.7373 49.6841C39.8698 49.4979 39.936 49.2777 39.936 49.0234ZM44.582 45.1885V45.9512H41.4399V45.1885H44.582ZM42.5034 43.7759H43.4971V49.5605C43.4971 49.7575 43.5275 49.9061 43.5884 50.0063C43.6493 50.1066 43.728 50.1729 43.8247 50.2051C43.9214 50.2373 44.0252 50.2534 44.1362 50.2534C44.2186 50.2534 44.3045 50.2463 44.394 50.2319C44.4871 50.214 44.557 50.1997 44.6035 50.189L44.6089 51C44.5301 51.0251 44.4263 51.0483 44.2974 51.0698C44.172 51.0949 44.0199 51.1074 43.8408 51.1074C43.5973 51.1074 43.3735 51.0591 43.1694 50.9624C42.9653 50.8657 42.8024 50.7046 42.6807 50.479C42.5625 50.2498 42.5034 49.9419 42.5034 49.5552V43.7759ZM49.1743 50.0063V47.0146C49.1743 46.7855 49.1278 46.5868 49.0347 46.4185C48.9451 46.2466 48.8091 46.1141 48.6265 46.021C48.4438 45.9279 48.2183 45.8813 47.9497 45.8813C47.6991 45.8813 47.4788 45.9243 47.2891 46.0103C47.1029 46.0962 46.9561 46.209 46.8486 46.3486C46.7448 46.4883 46.6929 46.6387 46.6929 46.7998H45.6992C45.6992 46.5921 45.7529 46.3862 45.8604 46.1821C45.9678 45.978 46.1217 45.7936 46.3223 45.6289C46.5264 45.4606 46.7699 45.3281 47.0527 45.2314C47.3392 45.1312 47.6579 45.0811 48.0088 45.0811C48.4313 45.0811 48.8037 45.1527 49.126 45.2959C49.4518 45.4391 49.7061 45.6558 49.8887 45.9458C50.0749 46.2323 50.168 46.5921 50.168 47.0254V49.7324C50.168 49.9258 50.1841 50.1317 50.2163 50.3501C50.2521 50.5685 50.304 50.7565 50.3721 50.9141V51H49.3354C49.2853 50.8854 49.2459 50.7332 49.2173 50.5435C49.1886 50.3501 49.1743 50.1711 49.1743 50.0063ZM49.3462 47.4766L49.3569 48.1748H48.3525C48.0697 48.1748 47.8172 48.1981 47.5952 48.2446C47.3732 48.2876 47.187 48.3538 47.0366 48.4434C46.8862 48.5329 46.7716 48.6457 46.6929 48.7817C46.6141 48.9142 46.5747 49.07 46.5747 49.249C46.5747 49.4316 46.6159 49.5981 46.6982 49.7485C46.7806 49.8989 46.9041 50.0189 47.0688 50.1084C47.2371 50.1943 47.443 50.2373 47.6865 50.2373C47.9909 50.2373 48.2594 50.1729 48.4922 50.0439C48.7249 49.915 48.9093 49.7575 49.0454 49.5713C49.1851 49.3851 49.2603 49.2043 49.271 49.0288L49.6953 49.5068C49.6702 49.6572 49.6022 49.8237 49.4912 50.0063C49.3802 50.189 49.2316 50.3644 49.0454 50.5327C48.8628 50.6974 48.6444 50.8353 48.3901 50.9463C48.1395 51.0537 47.8566 51.1074 47.5415 51.1074C47.1476 51.1074 46.8021 51.0304 46.5049 50.8765C46.2113 50.7225 45.9821 50.5166 45.8174 50.2588C45.6562 49.9974 45.5757 49.7056 45.5757 49.3833C45.5757 49.0718 45.6366 48.7979 45.7583 48.5615C45.88 48.3216 46.0555 48.1229 46.2847 47.9653C46.5138 47.8042 46.7896 47.6825 47.1118 47.6001C47.4341 47.5177 47.7939 47.4766 48.1914 47.4766H49.3462ZM52.7246 46.1016V51H51.731V45.1885H52.6978L52.7246 46.1016ZM54.54 45.1562L54.5347 46.0801C54.4523 46.0622 54.3735 46.0514 54.2983 46.0479C54.2267 46.0407 54.1444 46.0371 54.0513 46.0371C53.8221 46.0371 53.6198 46.0729 53.4443 46.1445C53.2689 46.2161 53.1203 46.3164 52.9985 46.4453C52.8768 46.5742 52.7801 46.7282 52.7085 46.9072C52.6405 47.0827 52.5957 47.276 52.5742 47.4873L52.2949 47.6484C52.2949 47.2975 52.3289 46.9681 52.397 46.6602C52.4686 46.3522 52.5778 46.0801 52.7246 45.8438C52.8714 45.6038 53.0576 45.4176 53.2832 45.2852C53.5124 45.1491 53.7845 45.0811 54.0996 45.0811C54.1712 45.0811 54.2536 45.09 54.3467 45.1079C54.4398 45.1222 54.5042 45.1383 54.54 45.1562ZM58.1602 45.1885V45.9512H55.0181V45.1885H58.1602ZM56.0815 43.7759H57.0752V49.5605C57.0752 49.7575 57.1056 49.9061 57.1665 50.0063C57.2274 50.1066 57.3062 50.1729 57.4028 50.2051C57.4995 50.2373 57.6034 50.2534 57.7144 50.2534C57.7967 50.2534 57.8826 50.2463 57.9722 50.2319C58.0653 50.214 58.1351 50.1997 58.1816 50.189L58.187 51C58.1082 51.0251 58.0044 51.0483 57.8755 51.0698C57.7502 51.0949 57.598 51.1074 57.4189 51.1074C57.1755 51.1074 56.9517 51.0591 56.7476 50.9624C56.5435 50.8657 56.3805 50.7046 56.2588 50.479C56.1406 50.2498 56.0815 49.9419 56.0815 49.5552V43.7759ZM63.499 46.6602L64.6699 45.8276C64.8955 45.6737 65.0692 45.5197 65.1909 45.3657C65.3162 45.2082 65.3789 44.9933 65.3789 44.7212C65.3789 44.5099 65.2965 44.3184 65.1318 44.1465C64.9671 43.971 64.7344 43.8833 64.4336 43.8833C64.2259 43.8833 64.0505 43.9316 63.9072 44.0283C63.764 44.125 63.6566 44.2539 63.585 44.415C63.5133 44.5726 63.4775 44.7463 63.4775 44.936C63.4775 45.0972 63.5169 45.2637 63.5957 45.4355C63.6745 45.6074 63.7837 45.7865 63.9233 45.9727C64.063 46.1589 64.2223 46.3558 64.4014 46.5635L68.1021 51H66.9097L63.875 47.3691C63.6064 47.054 63.3665 46.7658 63.1553 46.5044C62.944 46.2394 62.7775 45.9834 62.6558 45.7363C62.5376 45.4893 62.4785 45.2332 62.4785 44.9683C62.4785 44.5601 62.5591 44.2163 62.7202 43.937C62.8849 43.6541 63.1141 43.4393 63.4077 43.2925C63.7013 43.1457 64.0451 43.0723 64.439 43.0723C64.8221 43.0723 65.1515 43.1493 65.4272 43.3032C65.7065 43.4536 65.9214 43.6541 66.0718 43.9048C66.2222 44.1519 66.2974 44.424 66.2974 44.7212C66.2974 44.9718 66.2526 45.1974 66.1631 45.3979C66.0736 45.5949 65.9482 45.7757 65.7871 45.9404C65.6296 46.1051 65.4451 46.2663 65.2339 46.4238L63.6816 47.5786C63.4238 47.7684 63.2358 47.9492 63.1177 48.1211C62.9995 48.293 62.9225 48.4451 62.8867 48.5776C62.8545 48.7101 62.8384 48.8158 62.8384 48.8945C62.8384 49.1488 62.8939 49.3815 63.0049 49.5928C63.1159 49.804 63.2842 49.9741 63.5098 50.103C63.7389 50.2284 64.0254 50.291 64.3691 50.291C64.6699 50.291 64.9618 50.223 65.2446 50.0869C65.5311 49.9473 65.7871 49.7503 66.0127 49.4961C66.2383 49.2383 66.4173 48.9321 66.5498 48.5776C66.6859 48.2196 66.7539 47.8239 66.7539 47.3906H67.6455C67.6455 47.7451 67.6115 48.0799 67.5435 48.395C67.4754 48.7101 67.3698 49.0037 67.2266 49.2759C67.0869 49.5444 66.9079 49.7897 66.6895 50.0117C66.6572 50.0439 66.6322 50.0815 66.6143 50.1245C66.5964 50.1675 66.5713 50.2051 66.5391 50.2373C66.2705 50.5273 65.9393 50.7458 65.5454 50.8926C65.1551 51.0358 64.763 51.1074 64.3691 51.1074C63.8499 51.1074 63.4006 51.0125 63.021 50.8228C62.645 50.633 62.355 50.3716 62.1509 50.0386C61.9468 49.7056 61.8447 49.3242 61.8447 48.8945C61.8447 48.5651 61.9146 48.2751 62.0542 48.0244C62.1974 47.7738 62.3926 47.5392 62.6396 47.3208C62.8903 47.1024 63.1768 46.8822 63.499 46.6602ZM48.1055 67.1567V68H43.9644V67.1567H48.1055ZM44.1738 60.1797V68H43.1372V60.1797H44.1738ZM47.5576 63.542V64.3853H43.9644V63.542H47.5576ZM48.0518 60.1797V61.0283H43.9644V60.1797H48.0518ZM50.2324 63.4292V68H49.2388V62.1885H50.1787L50.2324 63.4292ZM49.9961 64.874L49.5825 64.8579C49.5861 64.4604 49.6452 64.0934 49.7598 63.7568C49.8743 63.4167 50.0355 63.1213 50.2432 62.8706C50.4508 62.62 50.6979 62.4266 50.9844 62.2905C51.2744 62.1509 51.5949 62.0811 51.9458 62.0811C52.2323 62.0811 52.4901 62.1204 52.7192 62.1992C52.9484 62.2744 53.1436 62.3962 53.3047 62.5645C53.4694 62.7327 53.5947 62.9512 53.6807 63.2197C53.7666 63.4847 53.8096 63.8088 53.8096 64.1919V68H52.8105V64.1812C52.8105 63.8768 52.7658 63.6333 52.6763 63.4507C52.5868 63.2645 52.4561 63.1302 52.2842 63.0479C52.1123 62.9619 51.901 62.9189 51.6504 62.9189C51.4033 62.9189 51.1777 62.9709 50.9736 63.0747C50.7731 63.1785 50.5994 63.3218 50.4526 63.5044C50.3094 63.687 50.1966 63.8965 50.1143 64.1328C50.0355 64.3656 49.9961 64.6126 49.9961 64.874ZM58.9819 66.8721V59.75H59.981V68H59.0679L58.9819 66.8721ZM55.0718 65.1587V65.0459C55.0718 64.6019 55.1255 64.1991 55.2329 63.8374C55.3439 63.4722 55.4997 63.1589 55.7002 62.8975C55.9043 62.6361 56.146 62.4355 56.4253 62.2959C56.7082 62.1527 57.0233 62.0811 57.3706 62.0811C57.7358 62.0811 58.0545 62.1455 58.3267 62.2744C58.6024 62.3997 58.8351 62.5841 59.0249 62.8276C59.2183 63.0675 59.3704 63.3576 59.4814 63.6978C59.5924 64.0379 59.6694 64.4229 59.7124 64.8525V65.3467C59.673 65.7728 59.596 66.1559 59.4814 66.4961C59.3704 66.8363 59.2183 67.1263 59.0249 67.3662C58.8351 67.6061 58.6024 67.7905 58.3267 67.9194C58.0509 68.0448 57.7287 68.1074 57.3599 68.1074C57.0197 68.1074 56.7082 68.034 56.4253 67.8872C56.146 67.7404 55.9043 67.5345 55.7002 67.2695C55.4997 67.0046 55.3439 66.693 55.2329 66.335C55.1255 65.9733 55.0718 65.5812 55.0718 65.1587ZM56.0708 65.0459V65.1587C56.0708 65.4487 56.0994 65.7209 56.1567 65.9751C56.2176 66.2293 56.3107 66.4531 56.436 66.6465C56.5614 66.8398 56.7207 66.992 56.9141 67.103C57.1074 67.2104 57.3384 67.2642 57.6069 67.2642C57.9364 67.2642 58.2067 67.1943 58.418 67.0547C58.6328 66.915 58.8047 66.7306 58.9336 66.5015C59.0625 66.2723 59.1628 66.0234 59.2344 65.7549V64.4604C59.1914 64.2635 59.1287 64.0737 59.0464 63.8911C58.9676 63.7049 58.8638 63.5402 58.7349 63.397C58.6095 63.2502 58.4538 63.1338 58.2676 63.0479C58.085 62.9619 57.8683 62.9189 57.6177 62.9189C57.3455 62.9189 57.111 62.9762 56.9141 63.0908C56.7207 63.2018 56.5614 63.3558 56.436 63.5527C56.3107 63.7461 56.2176 63.9717 56.1567 64.2295C56.0994 64.4837 56.0708 64.7559 56.0708 65.0459Z" fill="#333333"/>
<path d="M371.5 52.5L316.5 93L263 52.5L316.5 11L371.5 52.5Z" fill="#E6E6E6" stroke="#B8B8B8" stroke-width="1.5" stroke-dasharray="2 2"/>
<path d="M298.926 56H297.293L297.304 55.1567H298.926C299.485 55.1567 299.95 55.0404 300.323 54.8076C300.695 54.5713 300.974 54.2419 301.161 53.8193C301.35 53.3932 301.445 52.8955 301.445 52.3262V51.8481C301.445 51.4006 301.392 51.0031 301.284 50.6558C301.177 50.3049 301.019 50.0094 300.812 49.7695C300.604 49.526 300.35 49.3416 300.049 49.2163C299.752 49.091 299.41 49.0283 299.023 49.0283H297.261V48.1797H299.023C299.535 48.1797 300.002 48.2656 300.425 48.4375C300.847 48.6058 301.211 48.8511 301.515 49.1733C301.823 49.492 302.059 49.8787 302.224 50.3335C302.389 50.7847 302.471 51.2931 302.471 51.8589V52.3262C302.471 52.8919 302.389 53.4022 302.224 53.8569C302.059 54.3081 301.821 54.693 301.51 55.0117C301.202 55.3304 300.829 55.5757 300.393 55.7476C299.959 55.9159 299.471 56 298.926 56ZM297.847 48.1797V56H296.81V48.1797H297.847ZM306.29 56.1074C305.885 56.1074 305.518 56.0394 305.189 55.9033C304.863 55.7637 304.582 55.5685 304.346 55.3179C304.113 55.0672 303.934 54.77 303.809 54.4263C303.683 54.0825 303.621 53.7065 303.621 53.2983V53.0728C303.621 52.6001 303.69 52.1794 303.83 51.8105C303.97 51.4382 304.16 51.123 304.399 50.8652C304.639 50.6074 304.911 50.4123 305.216 50.2798C305.52 50.1473 305.835 50.0811 306.161 50.0811C306.576 50.0811 306.935 50.1527 307.235 50.2959C307.54 50.4391 307.789 50.6396 307.982 50.8975C308.175 51.1517 308.319 51.4525 308.412 51.7998C308.505 52.1436 308.551 52.5195 308.551 52.9277V53.3735H304.211V52.5625H307.558V52.4873C307.543 52.2295 307.49 51.9788 307.396 51.7354C307.307 51.4919 307.164 51.2913 306.967 51.1338C306.77 50.9762 306.501 50.8975 306.161 50.8975C305.936 50.8975 305.728 50.9458 305.538 51.0425C305.348 51.1356 305.185 51.2752 305.049 51.4614C304.913 51.6476 304.808 51.875 304.732 52.1436C304.657 52.4121 304.62 52.7218 304.62 53.0728V53.2983C304.62 53.5741 304.657 53.8337 304.732 54.0771C304.811 54.3171 304.924 54.5283 305.071 54.7109C305.221 54.8936 305.402 55.0368 305.613 55.1406C305.828 55.2445 306.072 55.2964 306.344 55.2964C306.695 55.2964 306.992 55.2248 307.235 55.0815C307.479 54.9383 307.692 54.7467 307.875 54.5068L308.476 54.9849C308.351 55.1746 308.191 55.3555 307.998 55.5273C307.805 55.6992 307.567 55.8389 307.284 55.9463C307.004 56.0537 306.673 56.1074 306.29 56.1074ZM312.037 55.291C312.273 55.291 312.492 55.2427 312.692 55.146C312.893 55.0493 313.058 54.9168 313.187 54.7485C313.315 54.5767 313.389 54.3815 313.407 54.1631H314.352C314.334 54.5068 314.218 54.8273 314.003 55.1245C313.792 55.4181 313.514 55.6562 313.17 55.8389C312.827 56.0179 312.449 56.1074 312.037 56.1074C311.6 56.1074 311.219 56.0304 310.893 55.8765C310.571 55.7225 310.302 55.5112 310.087 55.2427C309.876 54.9741 309.717 54.6662 309.609 54.3188C309.506 53.9679 309.454 53.5973 309.454 53.207V52.9814C309.454 52.5911 309.506 52.2223 309.609 51.875C309.717 51.5241 309.876 51.2144 310.087 50.9458C310.302 50.6772 310.571 50.466 310.893 50.312C311.219 50.158 311.6 50.0811 312.037 50.0811C312.492 50.0811 312.889 50.1742 313.229 50.3604C313.57 50.543 313.836 50.7936 314.03 51.1123C314.227 51.4274 314.334 51.7855 314.352 52.1865H313.407C313.389 51.9466 313.321 51.73 313.203 51.5366C313.088 51.3433 312.931 51.1893 312.73 51.0747C312.533 50.9565 312.302 50.8975 312.037 50.8975C311.733 50.8975 311.477 50.9583 311.269 51.0801C311.065 51.1982 310.902 51.3594 310.78 51.5635C310.662 51.764 310.576 51.9878 310.522 52.2349C310.472 52.4784 310.447 52.7272 310.447 52.9814V53.207C310.447 53.4613 310.472 53.7119 310.522 53.959C310.573 54.2061 310.657 54.4299 310.775 54.6304C310.897 54.8309 311.06 54.992 311.264 55.1138C311.471 55.2319 311.729 55.291 312.037 55.291ZM316.549 50.1885V56H315.55V50.1885H316.549ZM315.475 48.647C315.475 48.4858 315.523 48.3498 315.62 48.2388C315.72 48.1278 315.867 48.0723 316.06 48.0723C316.25 48.0723 316.395 48.1278 316.495 48.2388C316.599 48.3498 316.651 48.4858 316.651 48.647C316.651 48.8009 316.599 48.9334 316.495 49.0444C316.395 49.1519 316.25 49.2056 316.06 49.2056C315.867 49.2056 315.72 49.1519 315.62 49.0444C315.523 48.9334 315.475 48.8009 315.475 48.647ZM321.528 54.4585C321.528 54.3153 321.496 54.1828 321.431 54.061C321.37 53.9357 321.243 53.8229 321.05 53.7227C320.86 53.6188 320.574 53.5293 320.19 53.4541C319.868 53.3861 319.576 53.3055 319.315 53.2124C319.057 53.1193 318.837 53.0065 318.654 52.874C318.475 52.7415 318.337 52.5858 318.241 52.4067C318.144 52.2277 318.096 52.0182 318.096 51.7783C318.096 51.5492 318.146 51.3325 318.246 51.1284C318.35 50.9243 318.495 50.7435 318.681 50.5859C318.871 50.4284 319.098 50.3049 319.363 50.2153C319.628 50.1258 319.924 50.0811 320.25 50.0811C320.715 50.0811 321.112 50.1634 321.442 50.3281C321.771 50.4928 322.024 50.7131 322.199 50.9888C322.375 51.2609 322.462 51.5635 322.462 51.8965H321.469C321.469 51.7354 321.42 51.5796 321.324 51.4292C321.231 51.2752 321.093 51.1481 320.91 51.0479C320.731 50.9476 320.511 50.8975 320.25 50.8975C319.974 50.8975 319.75 50.9404 319.578 51.0264C319.41 51.1087 319.286 51.2144 319.208 51.3433C319.132 51.4722 319.095 51.6082 319.095 51.7515C319.095 51.8589 319.113 51.9556 319.148 52.0415C319.188 52.1239 319.256 52.2008 319.353 52.2725C319.449 52.3405 319.585 52.4049 319.761 52.4658C319.936 52.5267 320.16 52.5876 320.432 52.6484C320.908 52.7559 321.3 52.8848 321.608 53.0352C321.916 53.1855 322.146 53.37 322.296 53.5884C322.446 53.8068 322.521 54.0718 322.521 54.3833C322.521 54.6375 322.468 54.8703 322.36 55.0815C322.257 55.2928 322.104 55.4754 321.904 55.6294C321.707 55.7798 321.471 55.8979 321.195 55.9839C320.923 56.0662 320.617 56.1074 320.276 56.1074C319.764 56.1074 319.331 56.0161 318.977 55.8335C318.622 55.6509 318.354 55.4146 318.171 55.1245C317.988 54.8345 317.897 54.5283 317.897 54.2061H318.896C318.91 54.4782 318.989 54.6948 319.132 54.856C319.276 55.0135 319.451 55.1263 319.659 55.1943C319.866 55.2588 320.072 55.291 320.276 55.291C320.549 55.291 320.776 55.2552 320.958 55.1836C321.145 55.112 321.286 55.0135 321.383 54.8882C321.479 54.7629 321.528 54.6196 321.528 54.4585ZM324.906 50.1885V56H323.907V50.1885H324.906ZM323.832 48.647C323.832 48.4858 323.88 48.3498 323.977 48.2388C324.077 48.1278 324.224 48.0723 324.417 48.0723C324.607 48.0723 324.752 48.1278 324.853 48.2388C324.956 48.3498 325.008 48.4858 325.008 48.647C325.008 48.8009 324.956 48.9334 324.853 49.0444C324.752 49.1519 324.607 49.2056 324.417 49.2056C324.224 49.2056 324.077 49.1519 323.977 49.0444C323.88 48.9334 323.832 48.8009 323.832 48.647ZM326.238 53.1587V53.0352C326.238 52.6162 326.299 52.2277 326.421 51.8696C326.543 51.508 326.718 51.1947 326.947 50.9297C327.176 50.6611 327.454 50.4535 327.78 50.3066C328.106 50.1562 328.471 50.0811 328.875 50.0811C329.284 50.0811 329.651 50.1562 329.977 50.3066C330.306 50.4535 330.585 50.6611 330.814 50.9297C331.047 51.1947 331.224 51.508 331.346 51.8696C331.468 52.2277 331.529 52.6162 331.529 53.0352V53.1587C331.529 53.5776 331.468 53.9661 331.346 54.3242C331.224 54.6823 331.047 54.9956 330.814 55.2642C330.585 55.5291 330.308 55.7368 329.982 55.8872C329.66 56.034 329.294 56.1074 328.886 56.1074C328.478 56.1074 328.111 56.034 327.785 55.8872C327.459 55.7368 327.18 55.5291 326.947 55.2642C326.718 54.9956 326.543 54.6823 326.421 54.3242C326.299 53.9661 326.238 53.5776 326.238 53.1587ZM327.232 53.0352V53.1587C327.232 53.4487 327.266 53.7227 327.334 53.9805C327.402 54.2347 327.504 54.4603 327.64 54.6572C327.78 54.8542 327.953 55.0099 328.161 55.1245C328.369 55.2355 328.611 55.291 328.886 55.291C329.158 55.291 329.396 55.2355 329.601 55.1245C329.808 55.0099 329.98 54.8542 330.116 54.6572C330.252 54.4603 330.354 54.2347 330.422 53.9805C330.494 53.7227 330.53 53.4487 330.53 53.1587V53.0352C330.53 52.7487 330.494 52.4784 330.422 52.2241C330.354 51.9663 330.25 51.7389 330.111 51.542C329.975 51.3415 329.803 51.1839 329.595 51.0693C329.391 50.9548 329.151 50.8975 328.875 50.8975C328.603 50.8975 328.363 50.9548 328.156 51.0693C327.952 51.1839 327.78 51.3415 327.64 51.542C327.504 51.7389 327.402 51.9663 327.334 52.2241C327.266 52.4784 327.232 52.7487 327.232 53.0352ZM333.769 51.4292V56H332.775V50.1885H333.715L333.769 51.4292ZM333.532 52.874L333.119 52.8579C333.122 52.4604 333.181 52.0934 333.296 51.7568C333.41 51.4167 333.572 51.1213 333.779 50.8706C333.987 50.62 334.234 50.4266 334.521 50.2905C334.811 50.1509 335.131 50.0811 335.482 50.0811C335.768 50.0811 336.026 50.1204 336.255 50.1992C336.485 50.2744 336.68 50.3962 336.841 50.5645C337.006 50.7327 337.131 50.9512 337.217 51.2197C337.303 51.4847 337.346 51.8088 337.346 52.1919V56H336.347V52.1812C336.347 51.8768 336.302 51.6333 336.212 51.4507C336.123 51.2645 335.992 51.1302 335.82 51.0479C335.648 50.9619 335.437 50.9189 335.187 50.9189C334.939 50.9189 334.714 50.9709 334.51 51.0747C334.309 51.1785 334.136 51.3218 333.989 51.5044C333.846 51.687 333.733 51.8965 333.65 52.1328C333.572 52.3656 333.532 52.6126 333.532 52.874Z" fill="#333333"/>
<rect x="121.75" y="29.75" width="105.5" height="42.5" rx="2.25" fill="white" stroke="#CCCCCC" stroke-width="1.5"/>
<path d="M159.256 54H157.624L157.634 53.1567H159.256C159.815 53.1567 160.28 53.0404 160.653 52.8076C161.025 52.5713 161.305 52.2419 161.491 51.8193C161.681 51.3932 161.775 50.8955 161.775 50.3262V49.8481C161.775 49.4006 161.722 49.0031 161.614 48.6558C161.507 48.3049 161.349 48.0094 161.142 47.7695C160.934 47.526 160.68 47.3416 160.379 47.2163C160.082 47.091 159.74 47.0283 159.353 47.0283H157.591V46.1797H159.353C159.865 46.1797 160.332 46.2656 160.755 46.4375C161.177 46.6058 161.541 46.8511 161.845 47.1733C162.153 47.492 162.389 47.8787 162.554 48.3335C162.719 48.7847 162.801 49.2931 162.801 49.8589V50.3262C162.801 50.8919 162.719 51.4022 162.554 51.8569C162.389 52.3081 162.151 52.693 161.84 53.0117C161.532 53.3304 161.16 53.5757 160.723 53.7476C160.289 53.9159 159.801 54 159.256 54ZM158.177 46.1797V54H157.14V46.1797H158.177ZM165.288 48.1885V54H164.289V48.1885H165.288ZM164.214 46.647C164.214 46.4858 164.262 46.3498 164.359 46.2388C164.459 46.1278 164.606 46.0723 164.799 46.0723C164.989 46.0723 165.134 46.1278 165.234 46.2388C165.338 46.3498 165.39 46.4858 165.39 46.647C165.39 46.8009 165.338 46.9334 165.234 47.0444C165.134 47.1519 164.989 47.2056 164.799 47.2056C164.606 47.2056 164.459 47.1519 164.359 47.0444C164.262 46.9334 164.214 46.8009 164.214 46.647ZM170.267 52.4585C170.267 52.3153 170.235 52.1828 170.17 52.061C170.11 51.9357 169.982 51.8229 169.789 51.7227C169.599 51.6188 169.313 51.5293 168.93 51.4541C168.607 51.3861 168.316 51.3055 168.054 51.2124C167.796 51.1193 167.576 51.0065 167.394 50.874C167.215 50.7415 167.077 50.5858 166.98 50.4067C166.883 50.2277 166.835 50.0182 166.835 49.7783C166.835 49.5492 166.885 49.3325 166.985 49.1284C167.089 48.9243 167.234 48.7435 167.42 48.5859C167.61 48.4284 167.838 48.3049 168.103 48.2153C168.368 48.1258 168.663 48.0811 168.989 48.0811C169.454 48.0811 169.852 48.1634 170.181 48.3281C170.511 48.4928 170.763 48.7131 170.938 48.9888C171.114 49.2609 171.202 49.5635 171.202 49.8965H170.208C170.208 49.7354 170.16 49.5796 170.063 49.4292C169.97 49.2752 169.832 49.1481 169.649 49.0479C169.47 48.9476 169.25 48.8975 168.989 48.8975C168.713 48.8975 168.489 48.9404 168.317 49.0264C168.149 49.1087 168.026 49.2144 167.947 49.3433C167.872 49.4722 167.834 49.6082 167.834 49.7515C167.834 49.8589 167.852 49.9556 167.888 50.0415C167.927 50.1239 167.995 50.2008 168.092 50.2725C168.188 50.3405 168.325 50.4049 168.5 50.4658C168.675 50.5267 168.899 50.5876 169.171 50.6484C169.648 50.7559 170.04 50.8848 170.348 51.0352C170.656 51.1855 170.885 51.37 171.035 51.5884C171.186 51.8068 171.261 52.0718 171.261 52.3833C171.261 52.6375 171.207 52.8703 171.1 53.0815C170.996 53.2928 170.844 53.4754 170.643 53.6294C170.446 53.7798 170.21 53.8979 169.934 53.9839C169.662 54.0662 169.356 54.1074 169.016 54.1074C168.504 54.1074 168.07 54.0161 167.716 53.8335C167.361 53.6509 167.093 53.4146 166.91 53.1245C166.728 52.8345 166.636 52.5283 166.636 52.2061H167.635C167.65 52.4782 167.728 52.6948 167.872 52.856C168.015 53.0135 168.19 53.1263 168.398 53.1943C168.606 53.2588 168.812 53.291 169.016 53.291C169.288 53.291 169.515 53.2552 169.698 53.1836C169.884 53.112 170.025 53.0135 170.122 52.8882C170.219 52.7629 170.267 52.6196 170.267 52.4585ZM173.56 49.3057V56.2344H172.561V48.1885H173.474L173.56 49.3057ZM177.475 51.0459V51.1587C177.475 51.5812 177.425 51.9733 177.325 52.335C177.224 52.693 177.078 53.0046 176.884 53.2695C176.694 53.5345 176.46 53.7404 176.181 53.8872C175.901 54.034 175.581 54.1074 175.219 54.1074C174.85 54.1074 174.525 54.0465 174.242 53.9248C173.959 53.8031 173.719 53.6258 173.522 53.3931C173.325 53.1603 173.167 52.881 173.049 52.5552C172.935 52.2293 172.856 51.8623 172.813 51.4541V50.8525C172.856 50.4229 172.937 50.0379 173.055 49.6978C173.173 49.3576 173.329 49.0675 173.522 48.8276C173.719 48.5841 173.957 48.3997 174.236 48.2744C174.516 48.1455 174.838 48.0811 175.203 48.0811C175.568 48.0811 175.892 48.1527 176.175 48.2959C176.458 48.4355 176.696 48.6361 176.89 48.8975C177.083 49.1589 177.228 49.4722 177.325 49.8374C177.425 50.1991 177.475 50.6019 177.475 51.0459ZM176.476 51.1587V51.0459C176.476 50.7559 176.446 50.4837 176.385 50.2295C176.324 49.9717 176.229 49.7461 176.1 49.5527C175.975 49.3558 175.814 49.2018 175.617 49.0908C175.42 48.9762 175.185 48.9189 174.913 48.9189C174.662 48.9189 174.444 48.9619 174.258 49.0479C174.075 49.1338 173.919 49.2502 173.791 49.397C173.662 49.5402 173.556 49.7049 173.474 49.8911C173.395 50.0737 173.336 50.2635 173.296 50.4604V51.8516C173.368 52.1022 173.468 52.3385 173.597 52.5605C173.726 52.779 173.898 52.9562 174.113 53.0923C174.328 53.2248 174.598 53.291 174.924 53.291C175.192 53.291 175.423 53.2355 175.617 53.1245C175.814 53.0099 175.975 52.8542 176.1 52.6572C176.229 52.4603 176.324 52.2347 176.385 51.9805C176.446 51.7227 176.476 51.4487 176.476 51.1587ZM179.822 45.75V54H178.823V45.75H179.822ZM184.844 53.0063V50.0146C184.844 49.7855 184.798 49.5868 184.705 49.4185C184.615 49.2466 184.479 49.1141 184.296 49.021C184.114 48.9279 183.888 48.8813 183.62 48.8813C183.369 48.8813 183.149 48.9243 182.959 49.0103C182.773 49.0962 182.626 49.209 182.519 49.3486C182.415 49.4883 182.363 49.6387 182.363 49.7998H181.369C181.369 49.5921 181.423 49.3862 181.53 49.1821C181.638 48.978 181.792 48.7936 181.992 48.6289C182.196 48.4606 182.44 48.3281 182.723 48.2314C183.009 48.1312 183.328 48.0811 183.679 48.0811C184.101 48.0811 184.474 48.1527 184.796 48.2959C185.122 48.4391 185.376 48.6558 185.559 48.9458C185.745 49.2323 185.838 49.5921 185.838 50.0254V52.7324C185.838 52.9258 185.854 53.1317 185.886 53.3501C185.922 53.5685 185.974 53.7565 186.042 53.9141V54H185.005C184.955 53.8854 184.916 53.7332 184.887 53.5435C184.859 53.3501 184.844 53.1711 184.844 53.0063ZM185.016 50.4766L185.027 51.1748H184.022C183.74 51.1748 183.487 51.1981 183.265 51.2446C183.043 51.2876 182.857 51.3538 182.707 51.4434C182.556 51.5329 182.442 51.6457 182.363 51.7817C182.284 51.9142 182.245 52.07 182.245 52.249C182.245 52.4316 182.286 52.5981 182.368 52.7485C182.451 52.8989 182.574 53.0189 182.739 53.1084C182.907 53.1943 183.113 53.2373 183.356 53.2373C183.661 53.2373 183.929 53.1729 184.162 53.0439C184.395 52.915 184.579 52.7575 184.715 52.5713C184.855 52.3851 184.93 52.2043 184.941 52.0288L185.365 52.5068C185.34 52.6572 185.272 52.8237 185.161 53.0063C185.05 53.189 184.902 53.3644 184.715 53.5327C184.533 53.6974 184.314 53.8353 184.06 53.9463C183.809 54.0537 183.527 54.1074 183.211 54.1074C182.818 54.1074 182.472 54.0304 182.175 53.8765C181.881 53.7225 181.652 53.5166 181.487 53.2588C181.326 52.9974 181.246 52.7056 181.246 52.3833C181.246 52.0718 181.306 51.7979 181.428 51.5615C181.55 51.3216 181.725 51.1229 181.955 50.9653C182.184 50.8042 182.459 50.6825 182.782 50.6001C183.104 50.5177 183.464 50.4766 183.861 50.4766H185.016ZM188.948 53.3984L190.564 48.1885H191.628L189.297 54.897C189.243 55.0402 189.172 55.1942 189.082 55.3589C188.996 55.5272 188.885 55.6865 188.749 55.8369C188.613 55.9873 188.448 56.109 188.255 56.2021C188.065 56.2988 187.838 56.3472 187.573 56.3472C187.494 56.3472 187.394 56.3364 187.272 56.3149C187.15 56.2935 187.064 56.2756 187.014 56.2612L187.009 55.4556C187.037 55.4591 187.082 55.4627 187.143 55.4663C187.208 55.4735 187.252 55.4771 187.277 55.4771C187.503 55.4771 187.694 55.4466 187.852 55.3857C188.01 55.3285 188.142 55.23 188.25 55.0903C188.361 54.9543 188.455 54.7663 188.534 54.5264L188.948 53.3984ZM187.761 48.1885L189.27 52.7002L189.528 53.7476L188.813 54.1128L186.676 48.1885H187.761Z" fill="#333333"/>
<rect x="403.75" y="30.75" width="133.5" height="42.5" rx="17.25" fill="#7360DC" stroke="#5C4DB0" stroke-width="1.5"/>
<path d="M458.522 47.8726L455.934 55H454.875L457.856 47.1797H458.539L458.522 47.8726ZM460.692 55L458.098 47.8726L458.082 47.1797H458.764L461.756 55H460.692ZM460.558 52.105V52.9536H456.165V52.105H460.558ZM464.979 54.291C465.215 54.291 465.433 54.2427 465.634 54.146C465.834 54.0493 465.999 53.9168 466.128 53.7485C466.257 53.5767 466.33 53.3815 466.348 53.1631H467.293C467.276 53.5068 467.159 53.8273 466.944 54.1245C466.733 54.4181 466.456 54.6562 466.112 54.8389C465.768 55.0179 465.39 55.1074 464.979 55.1074C464.542 55.1074 464.16 55.0304 463.834 54.8765C463.512 54.7225 463.244 54.5112 463.029 54.2427C462.818 53.9741 462.658 53.6662 462.551 53.3188C462.447 52.9679 462.395 52.5973 462.395 52.207V51.9814C462.395 51.5911 462.447 51.2223 462.551 50.875C462.658 50.5241 462.818 50.2144 463.029 49.9458C463.244 49.6772 463.512 49.466 463.834 49.312C464.16 49.158 464.542 49.0811 464.979 49.0811C465.433 49.0811 465.831 49.1742 466.171 49.3604C466.511 49.543 466.778 49.7936 466.971 50.1123C467.168 50.4274 467.276 50.7855 467.293 51.1865H466.348C466.33 50.9466 466.262 50.73 466.144 50.5366C466.029 50.3433 465.872 50.1893 465.671 50.0747C465.474 49.9565 465.243 49.8975 464.979 49.8975C464.674 49.8975 464.418 49.9583 464.21 50.0801C464.006 50.1982 463.843 50.3594 463.722 50.5635C463.604 50.764 463.518 50.9878 463.464 51.2349C463.414 51.4784 463.389 51.7272 463.389 51.9814V52.207C463.389 52.4613 463.414 52.7119 463.464 52.959C463.514 53.2061 463.598 53.4299 463.716 53.6304C463.838 53.8309 464.001 53.992 464.205 54.1138C464.413 54.2319 464.671 54.291 464.979 54.291ZM470.844 49.1885V49.9512H467.702V49.1885H470.844ZM468.765 47.7759H469.759V53.5605C469.759 53.7575 469.789 53.9061 469.85 54.0063C469.911 54.1066 469.99 54.1729 470.086 54.2051C470.183 54.2373 470.287 54.2534 470.398 54.2534C470.48 54.2534 470.566 54.2463 470.656 54.2319C470.749 54.214 470.819 54.1997 470.865 54.189L470.871 55C470.792 55.0251 470.688 55.0483 470.559 55.0698C470.434 55.0949 470.282 55.1074 470.103 55.1074C469.859 55.1074 469.635 55.0591 469.431 54.9624C469.227 54.8657 469.064 54.7046 468.942 54.479C468.824 54.2498 468.765 53.9419 468.765 53.5552V47.7759ZM473.089 49.1885V55H472.09V49.1885H473.089ZM472.015 47.647C472.015 47.4858 472.063 47.3498 472.16 47.2388C472.26 47.1278 472.407 47.0723 472.6 47.0723C472.79 47.0723 472.935 47.1278 473.035 47.2388C473.139 47.3498 473.191 47.4858 473.191 47.647C473.191 47.8009 473.139 47.9334 473.035 48.0444C472.935 48.1519 472.79 48.2056 472.6 48.2056C472.407 48.2056 472.26 48.1519 472.16 48.0444C472.063 47.9334 472.015 47.8009 472.015 47.647ZM474.421 52.1587V52.0352C474.421 51.6162 474.482 51.2277 474.604 50.8696C474.725 50.508 474.901 50.1947 475.13 49.9297C475.359 49.6611 475.637 49.4535 475.962 49.3066C476.288 49.1562 476.653 49.0811 477.058 49.0811C477.466 49.0811 477.833 49.1562 478.159 49.3066C478.489 49.4535 478.768 49.6611 478.997 49.9297C479.23 50.1947 479.407 50.508 479.529 50.8696C479.651 51.2277 479.711 51.6162 479.711 52.0352V52.1587C479.711 52.5776 479.651 52.9661 479.529 53.3242C479.407 53.6823 479.23 53.9956 478.997 54.2642C478.768 54.5291 478.49 54.7368 478.165 54.8872C477.842 55.034 477.477 55.1074 477.069 55.1074C476.661 55.1074 476.294 55.034 475.968 54.8872C475.642 54.7368 475.363 54.5291 475.13 54.2642C474.901 53.9956 474.725 53.6823 474.604 53.3242C474.482 52.9661 474.421 52.5776 474.421 52.1587ZM475.415 52.0352V52.1587C475.415 52.4487 475.449 52.7227 475.517 52.9805C475.585 53.2347 475.687 53.4603 475.823 53.6572C475.962 53.8542 476.136 54.0099 476.344 54.1245C476.551 54.2355 476.793 54.291 477.069 54.291C477.341 54.291 477.579 54.2355 477.783 54.1245C477.991 54.0099 478.163 53.8542 478.299 53.6572C478.435 53.4603 478.537 53.2347 478.605 52.9805C478.677 52.7227 478.712 52.4487 478.712 52.1587V52.0352C478.712 51.7487 478.677 51.4784 478.605 51.2241C478.537 50.9663 478.433 50.7389 478.293 50.542C478.157 50.3415 477.986 50.1839 477.778 50.0693C477.574 49.9548 477.334 49.8975 477.058 49.8975C476.786 49.8975 476.546 49.9548 476.338 50.0693C476.134 50.1839 475.962 50.3415 475.823 50.542C475.687 50.7389 475.585 50.9663 475.517 51.2241C475.449 51.4784 475.415 51.7487 475.415 52.0352ZM481.951 50.4292V55H480.958V49.1885H481.897L481.951 50.4292ZM481.715 51.874L481.301 51.8579C481.305 51.4604 481.364 51.0934 481.479 50.7568C481.593 50.4167 481.754 50.1213 481.962 49.8706C482.17 49.62 482.417 49.4266 482.703 49.2905C482.993 49.1509 483.314 49.0811 483.665 49.0811C483.951 49.0811 484.209 49.1204 484.438 49.1992C484.667 49.2744 484.862 49.3962 485.023 49.5645C485.188 49.7327 485.313 49.9512 485.399 50.2197C485.485 50.4847 485.528 50.8088 485.528 51.1919V55H484.529V51.1812C484.529 50.8768 484.485 50.6333 484.395 50.4507C484.306 50.2645 484.175 50.1302 484.003 50.0479C483.831 49.9619 483.62 49.9189 483.369 49.9189C483.122 49.9189 482.896 49.9709 482.692 50.0747C482.492 50.1785 482.318 50.3218 482.171 50.5044C482.028 50.687 481.915 50.8965 481.833 51.1328C481.754 51.3656 481.715 51.6126 481.715 51.874Z" fill="white"/>
<rect x="569.75" y="30.75" width="133.5" height="42.5" rx="17.25" fill="#E4CCFF" stroke="#E4CCFF" stroke-width="1.5"/>
<path d="M624.022 46.8726L621.434 54H620.375L623.356 46.1797H624.039L624.022 46.8726ZM626.192 54L623.598 46.8726L623.582 46.1797H624.264L627.256 54H626.192ZM626.058 51.105V51.9536H621.665V51.105H626.058ZM630.479 53.291C630.715 53.291 630.933 53.2427 631.134 53.146C631.334 53.0493 631.499 52.9168 631.628 52.7485C631.757 52.5767 631.83 52.3815 631.848 52.1631H632.793C632.776 52.5068 632.659 52.8273 632.444 53.1245C632.233 53.4181 631.956 53.6562 631.612 53.8389C631.268 54.0179 630.89 54.1074 630.479 54.1074C630.042 54.1074 629.66 54.0304 629.334 53.8765C629.012 53.7225 628.744 53.5112 628.529 53.2427C628.318 52.9741 628.158 52.6662 628.051 52.3188C627.947 51.9679 627.895 51.5973 627.895 51.207V50.9814C627.895 50.5911 627.947 50.2223 628.051 49.875C628.158 49.5241 628.318 49.2144 628.529 48.9458C628.744 48.6772 629.012 48.466 629.334 48.312C629.66 48.158 630.042 48.0811 630.479 48.0811C630.933 48.0811 631.331 48.1742 631.671 48.3604C632.011 48.543 632.278 48.7936 632.471 49.1123C632.668 49.4274 632.776 49.7855 632.793 50.1865H631.848C631.83 49.9466 631.762 49.73 631.644 49.5366C631.529 49.3433 631.372 49.1893 631.171 49.0747C630.974 48.9565 630.743 48.8975 630.479 48.8975C630.174 48.8975 629.918 48.9583 629.71 49.0801C629.506 49.1982 629.343 49.3594 629.222 49.5635C629.104 49.764 629.018 49.9878 628.964 50.2349C628.914 50.4784 628.889 50.7272 628.889 50.9814V51.207C628.889 51.4613 628.914 51.7119 628.964 51.959C629.014 52.2061 629.098 52.4299 629.216 52.6304C629.338 52.8309 629.501 52.992 629.705 53.1138C629.913 53.2319 630.171 53.291 630.479 53.291ZM636.344 48.1885V48.9512H633.202V48.1885H636.344ZM634.265 46.7759H635.259V52.5605C635.259 52.7575 635.289 52.9061 635.35 53.0063C635.411 53.1066 635.49 53.1729 635.586 53.2051C635.683 53.2373 635.787 53.2534 635.898 53.2534C635.98 53.2534 636.066 53.2463 636.156 53.2319C636.249 53.214 636.319 53.1997 636.365 53.189L636.371 54C636.292 54.0251 636.188 54.0483 636.059 54.0698C635.934 54.0949 635.782 54.1074 635.603 54.1074C635.359 54.1074 635.135 54.0591 634.931 53.9624C634.727 53.8657 634.564 53.7046 634.442 53.479C634.324 53.2498 634.265 52.9419 634.265 52.5552V46.7759ZM638.589 48.1885V54H637.59V48.1885H638.589ZM637.515 46.647C637.515 46.4858 637.563 46.3498 637.66 46.2388C637.76 46.1278 637.907 46.0723 638.1 46.0723C638.29 46.0723 638.435 46.1278 638.535 46.2388C638.639 46.3498 638.691 46.4858 638.691 46.647C638.691 46.8009 638.639 46.9334 638.535 47.0444C638.435 47.1519 638.29 47.2056 638.1 47.2056C637.907 47.2056 637.76 47.1519 637.66 47.0444C637.563 46.9334 637.515 46.8009 637.515 46.647ZM639.921 51.1587V51.0352C639.921 50.6162 639.982 50.2277 640.104 49.8696C640.225 49.508 640.401 49.1947 640.63 48.9297C640.859 48.6611 641.137 48.4535 641.462 48.3066C641.788 48.1562 642.153 48.0811 642.558 48.0811C642.966 48.0811 643.333 48.1562 643.659 48.3066C643.989 48.4535 644.268 48.6611 644.497 48.9297C644.73 49.1947 644.907 49.508 645.029 49.8696C645.151 50.2277 645.211 50.6162 645.211 51.0352V51.1587C645.211 51.5776 645.151 51.9661 645.029 52.3242C644.907 52.6823 644.73 52.9956 644.497 53.2642C644.268 53.5291 643.99 53.7368 643.665 53.8872C643.342 54.034 642.977 54.1074 642.569 54.1074C642.161 54.1074 641.794 54.034 641.468 53.8872C641.142 53.7368 640.863 53.5291 640.63 53.2642C640.401 52.9956 640.225 52.6823 640.104 52.3242C639.982 51.9661 639.921 51.5776 639.921 51.1587ZM640.915 51.0352V51.1587C640.915 51.4487 640.949 51.7227 641.017 51.9805C641.085 52.2347 641.187 52.4603 641.323 52.6572C641.462 52.8542 641.636 53.0099 641.844 53.1245C642.051 53.2355 642.293 53.291 642.569 53.291C642.841 53.291 643.079 53.2355 643.283 53.1245C643.491 53.0099 643.663 52.8542 643.799 52.6572C643.935 52.4603 644.037 52.2347 644.105 51.9805C644.177 51.7227 644.212 51.4487 644.212 51.1587V51.0352C644.212 50.7487 644.177 50.4784 644.105 50.2241C644.037 49.9663 643.933 49.7389 643.793 49.542C643.657 49.3415 643.486 49.1839 643.278 49.0693C643.074 48.9548 642.834 48.8975 642.558 48.8975C642.286 48.8975 642.046 48.9548 641.838 49.0693C641.634 49.1839 641.462 49.3415 641.323 49.542C641.187 49.7389 641.085 49.9663 641.017 50.2241C640.949 50.4784 640.915 50.7487 640.915 51.0352ZM647.451 49.4292V54H646.458V48.1885H647.397L647.451 49.4292ZM647.215 50.874L646.801 50.8579C646.805 50.4604 646.864 50.0934 646.979 49.7568C647.093 49.4167 647.254 49.1213 647.462 48.8706C647.67 48.62 647.917 48.4266 648.203 48.2905C648.493 48.1509 648.814 48.0811 649.165 48.0811C649.451 48.0811 649.709 48.1204 649.938 48.1992C650.167 48.2744 650.362 48.3962 650.523 48.5645C650.688 48.7327 650.813 48.9512 650.899 49.2197C650.985 49.4847 651.028 49.8088 651.028 50.1919V54H650.029V50.1812C650.029 49.8768 649.985 49.6333 649.895 49.4507C649.806 49.2645 649.675 49.1302 649.503 49.0479C649.331 48.9619 649.12 48.9189 648.869 48.9189C648.622 48.9189 648.396 48.9709 648.192 49.0747C647.992 49.1785 647.818 49.3218 647.671 49.5044C647.528 49.687 647.415 49.8965 647.333 50.1328C647.254 50.3656 647.215 50.6126 647.215 50.874Z" fill="#E4CCFF"/>
<path d="M615.655 53.5132H616.686C616.632 54.0073 616.491 54.4495 616.262 54.8398C616.033 55.2301 615.708 55.5399 615.29 55.769C614.871 55.9946 614.348 56.1074 613.721 56.1074C613.263 56.1074 612.846 56.0215 612.47 55.8496C612.097 55.6777 611.777 55.4342 611.508 55.1191C611.24 54.8005 611.032 54.4191 610.885 53.9751C610.742 53.5275 610.67 53.0298 610.67 52.4819V51.7031C610.67 51.1553 610.742 50.6593 610.885 50.2153C611.032 49.7677 611.242 49.3846 611.514 49.0659C611.789 48.7472 612.121 48.502 612.507 48.3301C612.894 48.1582 613.329 48.0723 613.812 48.0723C614.403 48.0723 614.903 48.1833 615.311 48.4053C615.719 48.6273 616.036 48.9352 616.262 49.3291C616.491 49.7194 616.632 50.1724 616.686 50.688H615.655C615.605 50.3228 615.512 50.0094 615.375 49.748C615.239 49.4831 615.046 49.279 614.795 49.1357C614.545 48.9925 614.217 48.9209 613.812 48.9209C613.465 48.9209 613.159 48.9871 612.894 49.1196C612.633 49.2521 612.412 49.4401 612.233 49.6836C612.058 49.9271 611.925 50.2189 611.836 50.5591C611.746 50.8993 611.702 51.277 611.702 51.6924V52.4819C611.702 52.8651 611.741 53.2249 611.82 53.5615C611.902 53.8981 612.026 54.1935 612.19 54.4478C612.355 54.702 612.565 54.9025 612.819 55.0493C613.073 55.1925 613.374 55.2642 613.721 55.2642C614.162 55.2642 614.513 55.1943 614.774 55.0547C615.035 54.915 615.232 54.7145 615.365 54.4531C615.501 54.1917 615.597 53.8784 615.655 53.5132ZM621.375 55.0063V52.0146C621.375 51.7855 621.328 51.5868 621.235 51.4185C621.146 51.2466 621.01 51.1141 620.827 51.021C620.645 50.9279 620.419 50.8813 620.15 50.8813C619.9 50.8813 619.68 50.9243 619.49 51.0103C619.304 51.0962 619.157 51.209 619.049 51.3486C618.945 51.4883 618.894 51.6387 618.894 51.7998H617.9C617.9 51.5921 617.954 51.3862 618.061 51.1821C618.168 50.978 618.322 50.7936 618.523 50.6289C618.727 50.4606 618.971 50.3281 619.253 50.2314C619.54 50.1312 619.859 50.0811 620.209 50.0811C620.632 50.0811 621.004 50.1527 621.327 50.2959C621.653 50.4391 621.907 50.6558 622.089 50.9458C622.276 51.2323 622.369 51.5921 622.369 52.0254V54.7324C622.369 54.9258 622.385 55.1317 622.417 55.3501C622.453 55.5685 622.505 55.7565 622.573 55.9141V56H621.536C621.486 55.8854 621.447 55.7332 621.418 55.5435C621.389 55.3501 621.375 55.1711 621.375 55.0063ZM621.547 52.4766L621.558 53.1748H620.553C620.27 53.1748 620.018 53.1981 619.796 53.2446C619.574 53.2876 619.388 53.3538 619.237 53.4434C619.087 53.5329 618.972 53.6457 618.894 53.7817C618.815 53.9142 618.775 54.07 618.775 54.249C618.775 54.4316 618.817 54.5981 618.899 54.7485C618.981 54.8989 619.105 55.0189 619.27 55.1084C619.438 55.1943 619.644 55.2373 619.887 55.2373C620.192 55.2373 620.46 55.1729 620.693 55.0439C620.926 54.915 621.11 54.7575 621.246 54.5713C621.386 54.3851 621.461 54.2043 621.472 54.0288L621.896 54.5068C621.871 54.6572 621.803 54.8237 621.692 55.0063C621.581 55.189 621.432 55.3644 621.246 55.5327C621.063 55.6974 620.845 55.8353 620.591 55.9463C620.34 56.0537 620.057 56.1074 619.742 56.1074C619.348 56.1074 619.003 56.0304 618.706 55.8765C618.412 55.7225 618.183 55.5166 618.018 55.2588C617.857 54.9974 617.776 54.7056 617.776 54.3833C617.776 54.0718 617.837 53.7979 617.959 53.5615C618.081 53.3216 618.256 53.1229 618.485 52.9653C618.715 52.8042 618.99 52.6825 619.312 52.6001C619.635 52.5177 619.995 52.4766 620.392 52.4766H621.547ZM626.365 50.1885V50.9512H623.223V50.1885H626.365ZM624.286 48.7759H625.28V54.5605C625.28 54.7575 625.31 54.9061 625.371 55.0063C625.432 55.1066 625.511 55.1729 625.607 55.2051C625.704 55.2373 625.808 55.2534 625.919 55.2534C626.001 55.2534 626.087 55.2463 626.177 55.2319C626.27 55.214 626.34 55.1997 626.386 55.189L626.392 56C626.313 56.0251 626.209 56.0483 626.08 56.0698C625.955 56.0949 625.803 56.1074 625.624 56.1074C625.38 56.1074 625.156 56.0591 624.952 55.9624C624.748 55.8657 624.585 55.7046 624.463 55.479C624.345 55.2498 624.286 54.9419 624.286 54.5552V48.7759ZM629.942 56.1074C629.537 56.1074 629.17 56.0394 628.841 55.9033C628.515 55.7637 628.234 55.5685 627.998 55.3179C627.765 55.0672 627.586 54.77 627.46 54.4263C627.335 54.0825 627.272 53.7065 627.272 53.2983V53.0728C627.272 52.6001 627.342 52.1794 627.482 51.8105C627.622 51.4382 627.811 51.123 628.051 50.8652C628.291 50.6074 628.563 50.4123 628.868 50.2798C629.172 50.1473 629.487 50.0811 629.813 50.0811C630.228 50.0811 630.586 50.1527 630.887 50.2959C631.192 50.4391 631.44 50.6396 631.634 50.8975C631.827 51.1517 631.97 51.4525 632.063 51.7998C632.157 52.1436 632.203 52.5195 632.203 52.9277V53.3735H627.863V52.5625H631.209V52.4873C631.195 52.2295 631.141 51.9788 631.048 51.7354C630.959 51.4919 630.816 51.2913 630.619 51.1338C630.422 50.9762 630.153 50.8975 629.813 50.8975C629.587 50.8975 629.38 50.9458 629.19 51.0425C629 51.1356 628.837 51.2752 628.701 51.4614C628.565 51.6476 628.459 51.875 628.384 52.1436C628.309 52.4121 628.271 52.7218 628.271 53.0728V53.2983C628.271 53.5741 628.309 53.8337 628.384 54.0771C628.463 54.3171 628.576 54.5283 628.723 54.7109C628.873 54.8936 629.054 55.0368 629.265 55.1406C629.48 55.2445 629.723 55.2964 629.996 55.2964C630.347 55.2964 630.644 55.2248 630.887 55.0815C631.131 54.9383 631.344 54.7467 631.526 54.5068L632.128 54.9849C632.003 55.1746 631.843 55.3555 631.65 55.5273C631.457 55.6992 631.218 55.8389 630.936 55.9463C630.656 56.0537 630.325 56.1074 629.942 56.1074ZM637.128 50.1885H638.031V55.8765C638.031 56.3885 637.927 56.8254 637.719 57.187C637.512 57.5487 637.222 57.8226 636.849 58.0088C636.48 58.1986 636.054 58.2935 635.571 58.2935C635.37 58.2935 635.134 58.2612 634.862 58.1968C634.593 58.1359 634.328 58.0303 634.067 57.8799C633.809 57.7331 633.592 57.5343 633.417 57.2837L633.938 56.6929C634.181 56.9865 634.436 57.1906 634.701 57.3052C634.969 57.4198 635.234 57.4771 635.496 57.4771C635.811 57.4771 636.083 57.418 636.312 57.2998C636.541 57.1816 636.718 57.0062 636.844 56.7734C636.973 56.5443 637.037 56.2614 637.037 55.9248V51.4668L637.128 50.1885ZM633.127 53.1587V53.0459C633.127 52.6019 633.179 52.1991 633.283 51.8374C633.39 51.4722 633.542 51.1589 633.739 50.8975C633.94 50.6361 634.181 50.4355 634.464 50.2959C634.747 50.1527 635.066 50.0811 635.42 50.0811C635.786 50.0811 636.104 50.1455 636.376 50.2744C636.652 50.3997 636.885 50.5841 637.075 50.8276C637.268 51.0675 637.42 51.3576 637.531 51.6978C637.642 52.0379 637.719 52.4229 637.762 52.8525V53.3467C637.723 53.7728 637.646 54.1559 637.531 54.4961C637.42 54.8363 637.268 55.1263 637.075 55.3662C636.885 55.6061 636.652 55.7905 636.376 55.9194C636.101 56.0448 635.778 56.1074 635.41 56.1074C635.062 56.1074 634.747 56.034 634.464 55.8872C634.185 55.7404 633.945 55.5345 633.745 55.2695C633.544 55.0046 633.39 54.693 633.283 54.335C633.179 53.9733 633.127 53.5812 633.127 53.1587ZM634.121 53.0459V53.1587C634.121 53.4487 634.149 53.7209 634.207 53.9751C634.267 54.2293 634.359 54.4531 634.48 54.6465C634.606 54.8398 634.765 54.992 634.958 55.103C635.152 55.2104 635.383 55.2642 635.651 55.2642C635.981 55.2642 636.253 55.1943 636.468 55.0547C636.683 54.915 636.853 54.7306 636.978 54.5015C637.107 54.2723 637.207 54.0234 637.279 53.7549V52.4604C637.239 52.2635 637.179 52.0737 637.096 51.8911C637.017 51.7049 636.914 51.5402 636.785 51.397C636.659 51.2502 636.504 51.1338 636.317 51.0479C636.131 50.9619 635.913 50.9189 635.662 50.9189C635.39 50.9189 635.155 50.9762 634.958 51.0908C634.765 51.2018 634.606 51.3558 634.48 51.5527C634.359 51.7461 634.267 51.9717 634.207 52.2295C634.149 52.4837 634.121 52.7559 634.121 53.0459ZM639.277 53.1587V53.0352C639.277 52.6162 639.338 52.2277 639.459 51.8696C639.581 51.508 639.757 51.1947 639.986 50.9297C640.215 50.6611 640.493 50.4535 640.818 50.3066C641.144 50.1562 641.509 50.0811 641.914 50.0811C642.322 50.0811 642.689 50.1562 643.015 50.3066C643.345 50.4535 643.624 50.6611 643.853 50.9297C644.086 51.1947 644.263 51.508 644.385 51.8696C644.507 52.2277 644.567 52.6162 644.567 53.0352V53.1587C644.567 53.5776 644.507 53.9661 644.385 54.3242C644.263 54.6823 644.086 54.9956 643.853 55.2642C643.624 55.5291 643.346 55.7368 643.021 55.8872C642.698 56.034 642.333 56.1074 641.925 56.1074C641.517 56.1074 641.15 56.034 640.824 55.8872C640.498 55.7368 640.219 55.5291 639.986 55.2642C639.757 54.9956 639.581 54.6823 639.459 54.3242C639.338 53.9661 639.277 53.5776 639.277 53.1587ZM640.271 53.0352V53.1587C640.271 53.4487 640.305 53.7227 640.373 53.9805C640.441 54.2347 640.543 54.4603 640.679 54.6572C640.818 54.8542 640.992 55.0099 641.2 55.1245C641.407 55.2355 641.649 55.291 641.925 55.291C642.197 55.291 642.435 55.2355 642.639 55.1245C642.847 55.0099 643.019 54.8542 643.155 54.6572C643.291 54.4603 643.393 54.2347 643.461 53.9805C643.533 53.7227 643.568 53.4487 643.568 53.1587V53.0352C643.568 52.7487 643.533 52.4784 643.461 52.2241C643.393 51.9663 643.289 51.7389 643.149 51.542C643.013 51.3415 642.841 51.1839 642.634 51.0693C642.43 50.9548 642.19 50.8975 641.914 50.8975C641.642 50.8975 641.402 50.9548 641.194 51.0693C640.99 51.1839 640.818 51.3415 640.679 51.542C640.543 51.7389 640.441 51.9663 640.373 52.2241C640.305 52.4784 640.271 52.7487 640.271 53.0352ZM646.807 51.1016V56H645.813V50.1885H646.78L646.807 51.1016ZM648.623 50.1562L648.617 51.0801C648.535 51.0622 648.456 51.0514 648.381 51.0479C648.309 51.0407 648.227 51.0371 648.134 51.0371C647.905 51.0371 647.702 51.0729 647.527 51.1445C647.351 51.2161 647.203 51.3164 647.081 51.4453C646.959 51.5742 646.863 51.7282 646.791 51.9072C646.723 52.0827 646.678 52.276 646.657 52.4873L646.377 52.6484C646.377 52.2975 646.411 51.9681 646.479 51.6602C646.551 51.3522 646.66 51.0801 646.807 50.8438C646.954 50.6038 647.14 50.4176 647.366 50.2852C647.595 50.1491 647.867 50.0811 648.182 50.0811C648.254 50.0811 648.336 50.09 648.429 50.1079C648.522 50.1222 648.587 50.1383 648.623 50.1562ZM650.621 50.1885V56H649.622V50.1885H650.621ZM649.546 48.647C649.546 48.4858 649.595 48.3498 649.691 48.2388C649.792 48.1278 649.938 48.0723 650.132 48.0723C650.322 48.0723 650.467 48.1278 650.567 48.2388C650.671 48.3498 650.723 48.4858 650.723 48.647C650.723 48.8009 650.671 48.9334 650.567 49.0444C650.467 49.1519 650.322 49.2056 650.132 49.2056C649.938 49.2056 649.792 49.1519 649.691 49.0444C649.595 48.9334 649.546 48.8009 649.546 48.647ZM654.627 56.1074C654.223 56.1074 653.856 56.0394 653.526 55.9033C653.201 55.7637 652.919 55.5685 652.683 55.3179C652.45 55.0672 652.271 54.77 652.146 54.4263C652.021 54.0825 651.958 53.7065 651.958 53.2983V53.0728C651.958 52.6001 652.028 52.1794 652.167 51.8105C652.307 51.4382 652.497 51.123 652.737 50.8652C652.977 50.6074 653.249 50.4123 653.553 50.2798C653.858 50.1473 654.173 50.0811 654.499 50.0811C654.914 50.0811 655.272 50.1527 655.573 50.2959C655.877 50.4391 656.126 50.6396 656.319 50.8975C656.513 51.1517 656.656 51.4525 656.749 51.7998C656.842 52.1436 656.889 52.5195 656.889 52.9277V53.3735H652.549V52.5625H655.895V52.4873C655.881 52.2295 655.827 51.9788 655.734 51.7354C655.644 51.4919 655.501 51.2913 655.304 51.1338C655.107 50.9762 654.839 50.8975 654.499 50.8975C654.273 50.8975 654.065 50.9458 653.875 51.0425C653.686 51.1356 653.523 51.2752 653.387 51.4614C653.251 51.6476 653.145 51.875 653.07 52.1436C652.995 52.4121 652.957 52.7218 652.957 53.0728V53.2983C652.957 53.5741 652.995 53.8337 653.07 54.0771C653.149 54.3171 653.261 54.5283 653.408 54.7109C653.559 54.8936 653.739 55.0368 653.951 55.1406C654.166 55.2445 654.409 55.2964 654.681 55.2964C655.032 55.2964 655.329 55.2248 655.573 55.0815C655.816 54.9383 656.029 54.7467 656.212 54.5068L656.813 54.9849C656.688 55.1746 656.529 55.3555 656.335 55.5273C656.142 55.6992 655.904 55.8389 655.621 55.9463C655.342 56.0537 655.011 56.1074 654.627 56.1074ZM661.433 54.4585C661.433 54.3153 661.4 54.1828 661.336 54.061C661.275 53.9357 661.148 53.8229 660.955 53.7227C660.765 53.6188 660.478 53.5293 660.095 53.4541C659.773 53.3861 659.481 53.3055 659.22 53.2124C658.962 53.1193 658.742 53.0065 658.559 52.874C658.38 52.7415 658.242 52.5858 658.146 52.4067C658.049 52.2277 658 52.0182 658 51.7783C658 51.5492 658.051 51.3325 658.151 51.1284C658.255 50.9243 658.4 50.7435 658.586 50.5859C658.776 50.4284 659.003 50.3049 659.268 50.2153C659.533 50.1258 659.828 50.0811 660.154 50.0811C660.62 50.0811 661.017 50.1634 661.347 50.3281C661.676 50.4928 661.929 50.7131 662.104 50.9888C662.279 51.2609 662.367 51.5635 662.367 51.8965H661.374C661.374 51.7354 661.325 51.5796 661.229 51.4292C661.135 51.2752 660.998 51.1481 660.815 51.0479C660.636 50.9476 660.416 50.8975 660.154 50.8975C659.879 50.8975 659.655 50.9404 659.483 51.0264C659.315 51.1087 659.191 51.2144 659.112 51.3433C659.037 51.4722 659 51.6082 659 51.7515C659 51.8589 659.017 51.9556 659.053 52.0415C659.093 52.1239 659.161 52.2008 659.257 52.2725C659.354 52.3405 659.49 52.4049 659.666 52.4658C659.841 52.5267 660.065 52.5876 660.337 52.6484C660.813 52.7559 661.205 52.8848 661.513 53.0352C661.821 53.1855 662.05 53.37 662.201 53.5884C662.351 53.8068 662.426 54.0718 662.426 54.3833C662.426 54.6375 662.373 54.8703 662.265 55.0815C662.161 55.2928 662.009 55.4754 661.809 55.6294C661.612 55.7798 661.375 55.8979 661.1 55.9839C660.827 56.0662 660.521 56.1074 660.181 56.1074C659.669 56.1074 659.236 56.0161 658.881 55.8335C658.527 55.6509 658.258 55.4146 658.076 55.1245C657.893 54.8345 657.802 54.5283 657.802 54.2061H658.801C658.815 54.4782 658.894 54.6948 659.037 54.856C659.18 55.0135 659.356 55.1263 659.563 55.1943C659.771 55.2588 659.977 55.291 660.181 55.291C660.453 55.291 660.681 55.2552 660.863 55.1836C661.049 55.112 661.191 55.0135 661.288 54.8882C661.384 54.7629 661.433 54.6196 661.433 54.4585Z" fill="#333333"/>
<rect x="-36" y="-52" width="791" height="206" rx="19" stroke="#CCCCCC" stroke-width="2"/>
<path d="M654 816V480.756C654 475.233 658.477 470.756 664 470.756H1089C1094.52 470.756 1099 466.279 1099 460.756V85C1099 79.4771 1094.52 75 1089 75H819.992" stroke="#2C94FF" stroke-width="2" stroke-dasharray="8 8"/>
</g>
<defs>
<clipPath id="clip0_84_2189">
<rect width="1440" height="29242" fill="white" transform="translate(-361 -10056)"/>
</clipPath>
</defs>
</svg>
