<svg width="169" height="187" viewBox="0 0 169 187" fill="none" xmlns="http://www.w3.org/2000/svg">
<path d="M47.4727 73.2285H102.629V154.668H47.4727V73.2285Z" fill="black" stroke="black" stroke-width="3" stroke-miterlimit="0" stroke-linecap="square"/>
<path d="M103 148.324L82.2436 146.637L73.2754 122.188L61.0683 120.121L51.0822 138.044L39.5 180.324L71 182.324L105.5 184.5L103 148.324Z" fill="#E9BBA1" stroke="black" stroke-width="5" stroke-miterlimit="0" stroke-linecap="square"/>
<path d="M144.186 33.4766H83.1067L76.94 78.8545L64.2276 76.7875L58.3047 89.7437L65.3618 111.75L79.4523 115.246L86.9469 138.385L145.5 140L151.96 43.9354L144.186 33.4766Z" fill="#E9BBA1" stroke="black" stroke-width="5" stroke-miterlimit="0" stroke-linecap="square"/>
<path d="M79.0166 107.372L78.9084 109.588L69.2016 103.057L68.8314 91.1719L73.9217 95.614L73.8657 104.124L79.0166 107.372Z" fill="#142221" stroke="black" stroke-width="3" stroke-miterlimit="0" stroke-linecap="square"/>
<path d="M159 16.5L107.5 6L77 3L54.5 22L34.5 33L29 59L2.99997 94.5V145.5L31.5 149.843L56.5069 157.5L64.5 145.5L69.8334 133.185L74.6708 110.18L82.801 83.6504L101.629 72.9528L107.5 70L126.875 62.6832L149.5 64H166L159 16.5Z" fill="#2C1F12" stroke="black" stroke-width="5" stroke-miterlimit="0" stroke-linecap="square"/>
<mask id="path-6-outside-1_33_6185" maskUnits="userSpaceOnUse" x="61.5" y="110.32" width="46" height="50" fill="black">
<rect fill="white" x="61.5" y="110.32" width="46" height="50"/>
<path fill-rule="evenodd" clip-rule="evenodd" d="M102.905 128.495C103.841 128.135 104.87 127.746 106 127.324C106 113.793 100.531 111.32 87 111.32C73.469 111.32 62.5 122.289 62.5 135.82C62.5 149.351 67.5 157.324 101 158.324C104.966 149.845 104.93 144.508 103.387 141.004C100.617 149.046 92.9831 154.824 83.9999 154.824C72.6781 154.824 63.4999 145.646 63.4999 134.324C63.4999 123.002 72.6781 113.824 83.9999 113.824C90.6692 113.824 98.6765 122.325 102.905 128.495Z"/>
</mask>
<path fill-rule="evenodd" clip-rule="evenodd" d="M102.905 128.495C103.841 128.135 104.87 127.746 106 127.324C106 113.793 100.531 111.32 87 111.32C73.469 111.32 62.5 122.289 62.5 135.82C62.5 149.351 67.5 157.324 101 158.324C104.966 149.845 104.93 144.508 103.387 141.004C100.617 149.046 92.9831 154.824 83.9999 154.824C72.6781 154.824 63.4999 145.646 63.4999 134.324C63.4999 123.002 72.6781 113.824 83.9999 113.824C90.6692 113.824 98.6765 122.325 102.905 128.495Z" fill="#FFFACB"/>
<path d="M106 127.324L106.349 128.261L107 128.019V127.324H106ZM102.905 128.495L102.08 129.06L102.527 129.712L103.264 129.428L102.905 128.495ZM101 158.324L100.97 159.324L101.627 159.343L101.906 158.748L101 158.324ZM103.387 141.004L104.302 140.601L103.273 138.263L102.442 140.678L103.387 141.004ZM105.651 126.387C104.518 126.809 103.485 127.2 102.546 127.562L103.264 129.428C104.196 129.069 105.222 128.682 106.349 128.261L105.651 126.387ZM87 112.32C93.789 112.32 98.2115 112.962 100.972 115.046C103.642 117.062 105 120.645 105 127.324H107C107 120.473 105.624 116.053 102.177 113.45C98.8195 110.915 93.7419 110.32 87 110.32V112.32ZM63.5 135.82C63.5 122.842 74.0213 112.32 87 112.32V110.32C72.9167 110.32 61.5 121.737 61.5 135.82H63.5ZM101.03 157.325C84.2916 156.825 74.9359 154.578 69.7613 150.952C64.7246 147.424 63.5 142.467 63.5 135.82H61.5C61.5 142.705 62.7754 148.5 68.6137 152.59C74.3141 156.584 84.2084 158.823 100.97 159.324L101.03 157.325ZM102.472 141.407C103.849 144.536 104.001 149.549 100.094 157.901L101.906 158.748C105.931 150.142 106.01 144.48 104.302 140.601L102.472 141.407ZM102.442 140.678C99.806 148.329 92.5433 153.824 83.9999 153.824V155.824C93.4229 155.824 101.428 149.763 104.333 141.329L102.442 140.678ZM83.9999 153.824C73.2303 153.824 64.4999 145.094 64.4999 134.324H62.4999C62.4999 146.198 72.1258 155.824 83.9999 155.824V153.824ZM64.4999 134.324C64.4999 123.555 73.2303 114.824 83.9999 114.824V112.824C72.1258 112.824 62.4999 122.45 62.4999 134.324H64.4999ZM83.9999 114.824C86.9566 114.824 90.3891 116.74 93.7153 119.604C97.0003 122.432 100.004 126.031 102.08 129.06L103.73 127.93C101.578 124.79 98.4633 121.053 95.0202 118.088C91.6183 115.159 87.7124 112.824 83.9999 112.824V114.824Z" fill="#FFFACB" mask="url(#path-6-outside-1_33_6185)"/>
</svg>
