<svg width="167" height="185" viewBox="0 0 167 185" fill="none" xmlns="http://www.w3.org/2000/svg">
<path d="M46.4727 72.2285H101.629V153.668H46.4727V72.2285Z" fill="white" stroke="white" stroke-width="3" stroke-miterlimit="0" stroke-linecap="square"/>
<path d="M102 147.324L81.2436 145.637L72.2754 121.188L60.0683 119.121L50.0822 137.044L38.5 179.324L70 181.324L104.5 183.5L102 147.324Z" fill="#E9BBA1" stroke="white" stroke-width="3" stroke-miterlimit="0" stroke-linecap="square"/>
<path d="M143.186 32.4766H82.1067L75.94 77.8545L63.2276 75.7875L57.3047 88.7437L64.3618 110.75L78.4523 114.246L85.9469 137.385L144.5 139L150.96 42.9354L143.186 32.4766Z" fill="#E9BBA1" stroke="white" stroke-width="3" stroke-miterlimit="0" stroke-linecap="square"/>
<path d="M78.0166 106.372L77.9084 108.588L68.2016 102.057L67.8314 90.1719L72.9217 94.614L72.8657 103.124L78.0166 106.372Z" fill="#142221" stroke="black" stroke-width="3" stroke-miterlimit="0" stroke-linecap="square"/>
<path d="M158 15.5L106.5 5L76 2L53.5 21L33.5 32L28 58L1.99997 93.5V144.5L30.5 148.843L55.5069 156.5L63.5 144.5L68.8334 132.185L73.6708 109.18L81.801 82.6504L100.629 71.9528L106.5 69L125.875 61.6832L148.5 63H165L158 15.5Z" fill="#2C1F12" stroke="#F7F7F7" stroke-width="3" stroke-miterlimit="0" stroke-linecap="square"/>
<mask id="path-6-outside-1_33_6186" maskUnits="userSpaceOnUse" x="60.5" y="109.32" width="45" height="49" fill="black">
<rect fill="white" x="60.5" y="109.32" width="45" height="49"/>
<path fill-rule="evenodd" clip-rule="evenodd" d="M101.905 127.495C102.841 127.135 103.87 126.746 105 126.324C105 112.793 99.531 110.32 86 110.32C72.469 110.32 61.5 121.289 61.5 134.82C61.5 148.351 66.5 156.324 100 157.324C103.966 148.845 103.93 143.508 102.387 140.004C99.6167 148.046 91.9831 153.824 82.9999 153.824C71.6781 153.824 62.4999 144.646 62.4999 133.324C62.4999 122.002 71.6781 112.824 82.9999 112.824C89.6692 112.824 97.6765 121.325 101.905 127.495Z"/>
</mask>
<path fill-rule="evenodd" clip-rule="evenodd" d="M101.905 127.495C102.841 127.135 103.87 126.746 105 126.324C105 112.793 99.531 110.32 86 110.32C72.469 110.32 61.5 121.289 61.5 134.82C61.5 148.351 66.5 156.324 100 157.324C103.966 148.845 103.93 143.508 102.387 140.004C99.6167 148.046 91.9831 153.824 82.9999 153.824C71.6781 153.824 62.4999 144.646 62.4999 133.324C62.4999 122.002 71.6781 112.824 82.9999 112.824C89.6692 112.824 97.6765 121.325 101.905 127.495Z" fill="#FFFACB"/>
<path d="M105 126.324L105.175 126.793L105.5 126.671V126.324H105ZM101.905 127.495L101.493 127.778L101.716 128.104L102.085 127.962L101.905 127.495ZM100 157.324L99.9851 157.824L100.314 157.834L100.453 157.536L100 157.324ZM102.387 140.004L102.845 139.802L102.33 138.633L101.914 139.841L102.387 140.004ZM104.825 125.856C103.694 126.277 102.663 126.667 101.725 127.028L102.085 127.962C103.018 127.602 104.046 127.214 105.175 126.793L104.825 125.856ZM86 110.82C92.7773 110.82 97.3635 111.45 100.273 113.647C103.137 115.81 104.5 119.602 104.5 126.324H105.5C105.5 119.516 104.128 115.305 100.875 112.849C97.6675 110.427 92.7537 109.82 86 109.82V110.82ZM62 134.82C62 121.565 72.7452 110.82 86 110.82V109.82C72.1929 109.82 61 121.013 61 134.82H62ZM100.015 156.824C83.2708 156.325 73.7805 154.079 68.4744 150.362C63.2373 146.693 62 141.526 62 134.82H61C61 141.645 62.2627 147.231 67.9006 151.181C73.4695 155.083 83.2292 157.324 99.9851 157.824L100.015 156.824ZM101.929 140.205C103.39 143.522 103.483 148.697 99.5471 157.112L100.453 157.536C104.449 148.993 104.47 143.494 102.845 139.802L101.929 140.205ZM101.914 139.841C99.2114 147.688 91.7632 153.324 82.9999 153.324V154.324C92.203 154.324 100.022 148.404 102.86 140.167L101.914 139.841ZM82.9999 153.324C71.9542 153.324 62.9999 144.37 62.9999 133.324H61.9999C61.9999 144.922 71.4019 154.324 82.9999 154.324V153.324ZM62.9999 133.324C62.9999 122.278 71.9542 113.324 82.9999 113.324V112.324C71.4019 112.324 61.9999 121.726 61.9999 133.324H62.9999ZM82.9999 113.324C86.1456 113.324 89.6964 115.345 93.0415 118.225C96.3661 121.087 99.3972 124.72 101.493 127.778L102.317 127.212C100.184 124.1 97.0975 120.398 93.694 117.467C90.311 114.554 86.5235 112.324 82.9999 112.324V113.324Z" fill="black" mask="url(#path-6-outside-1_33_6186)"/>
</svg>
